<svg width="880" height="472" viewBox="0 0 880 472" fill="none" xmlns="http://www.w3.org/2000/svg" font-family="ui-monospace, 'Cascadia Code', Consolas, monospace"><text x="4" y="30" font-size="12" letter-spacing="3" fill="#7a7a7a">LANGUAGES & FRAMEWORKS</text><line x1="189.0" y1="25" x2="876" y2="25" stroke="#000000" stroke-opacity="0.12" stroke-dasharray="4 6"><animate attributeName="stroke-dashoffset" from="0" to="-100" dur="8s" repeatCount="indefinite"/></line><g transform="translate(4,46)" opacity="0"><animate attributeName="opacity" from="0" to="1" begin="0.15s" dur="0.45s" fill="freeze"/><animateTransform attributeName="transform" type="translate" additive="sum" from="0 10" to="0 0" begin="0.15s" dur="0.45s" fill="freeze"/><rect width="121" height="36" rx="18" fill="#000000" fill-opacity="0.035" stroke="#000000" stroke-opacity="0.18"/><g transform="translate(13,10.0) scale(0.6666666666666666)"><path d="M24 8.77h-2.468v7.565h-1.425V8.77h-2.462V7.53H24zm-6.852 7.565h-4.821V7.53h4.63v1.24h-3.205v2.494h2.953v1.234h-2.953v2.604h3.396zm-6.708 0H8.882L4.78 9.863a2.896 2.896 0 0 1-.258-.51h-.036c.032.189.048.592.048 1.21v5.772H3.157V7.53h1.659l3.965 6.32c.167.261.275.442.323.54h.024c-.04-.233-.06-.629-.06-1.185V7.529h1.372zm-8.703-.693a.868.829 0 0 1-.869.829.868.829 0 0 1-.868-.83.868.829 0 0 1 .868-.828.868.829 0 0 1 .869.829Z" fill="#000000" fill-opacity="0.9"/></g><text x="37" y="22.5" font-size="13" fill="#1c1c1c">.NET / C#</text></g><g transform="translate(135,46)" opacity="0"><animate attributeName="opacity" from="0" to="1" begin="0.22s" dur="0.45s" fill="freeze"/><animateTransform attributeName="transform" type="translate" additive="sum" from="0 10" to="0 0" begin="0.22s" dur="0.45s" fill="freeze"/><rect width="105" height="36" rx="18" fill="#000000" fill-opacity="0.035" stroke="#000000" stroke-opacity="0.18"/><g transform="translate(13,10.0) scale(0.6666666666666666)"><path d="M18.665 21.978C16.758 23.255 14.465 24 12 24 5.377 24 0 18.623 0 12S5.377 0 12 0s12 5.377 12 12c0 3.583-1.574 6.801-4.067 9.001L9.219 7.2H7.2v9.596h1.615V9.251l9.85 12.727Zm-3.332-8.533 1.6 2.061V7.2h-1.6v6.245Z" fill="#000000" fill-opacity="0.9"/></g><text x="37" y="22.5" font-size="13" fill="#1c1c1c">Next.js</text></g><g transform="translate(250,46)" opacity="0"><animate attributeName="opacity" from="0" to="1" begin="0.29s" dur="0.45s" fill="freeze"/><animateTransform attributeName="transform" type="translate" additive="sum" from="0 10" to="0 0" begin="0.29s" dur="0.45s" fill="freeze"/><rect width="89" height="36" rx="18" fill="#000000" fill-opacity="0.035" stroke="#000000" stroke-opacity="0.18"/><g transform="translate(13,10.0) scale(0.6666666666666666)"><path d="M14.23 12.004a2.236 2.236 0 0 1-2.235 2.236 2.236 2.236 0 0 1-2.236-2.236 2.236 2.236 0 0 1 2.235-2.236 2.236 2.236 0 0 1 2.236 2.236zm2.648-10.69c-1.346 0-3.107.96-4.888 2.622-1.78-1.653-3.542-2.602-4.887-2.602-.41 0-.783.093-1.106.278-1.375.793-1.683 3.264-.973 6.365C1.98 8.917 0 10.42 0 12.004c0 1.59 1.99 3.097 5.043 4.03-.704 3.113-.39 5.588.988 6.38.32.187.69.275 1.102.275 1.345 0 3.107-.96 4.888-2.624 1.78 1.654 3.542 2.603 4.887 2.603.41 0 .783-.09 1.106-.275 1.374-.792 1.683-3.263.973-6.365C22.02 15.096 24 13.59 24 12.004c0-1.59-1.99-3.097-5.043-4.032.704-3.11.39-5.587-.988-6.38-.318-.184-.688-.277-1.092-.278zm-.005 1.09v.006c.225 0 .406.044.558.127.666.382.955 1.835.73 3.704-.054.46-.142.945-.25 1.44-.96-.236-2.006-.417-3.107-.534-.66-.905-1.345-1.727-2.035-2.447 1.592-1.48 3.087-2.292 4.105-2.295zm-9.77.02c1.012 0 2.514.808 4.11 2.28-.686.72-1.37 1.537-2.02 2.442-1.107.117-2.154.298-3.113.538-.112-.49-.195-.964-.254-1.42-.23-1.868.054-3.32.714-3.707.19-.09.4-.127.563-.132zm4.882 3.05c.455.468.91.992 1.36 1.564-.44-.02-.89-.034-1.345-.034-.46 0-.915.01-1.36.034.44-.572.895-1.096 1.345-1.565zM12 8.1c.74 0 1.477.034 2.202.093.406.582.802 1.203 1.183 1.86.372.64.71 1.29 1.018 1.946-.308.655-.646 1.31-1.013 1.95-.38.66-.773 1.288-1.18 1.87-.728.063-1.466.098-2.21.098-.74 0-1.477-.035-2.202-.093-.406-.582-.802-1.204-1.183-1.86-.372-.64-.71-1.29-1.018-1.946.303-.657.646-1.313 1.013-1.954.38-.66.773-1.286 1.18-1.868.728-.064 1.466-.098 2.21-.098zm-3.635.254c-.24.377-.48.763-.704 1.16-.225.39-.435.782-.635 1.174-.265-.656-.49-1.31-.676-1.947.64-.15 1.315-.283 2.015-.386zm7.26 0c.695.103 1.365.23 2.006.387-.18.632-.405 1.282-.66 1.933-.2-.39-.41-.783-.64-1.174-.225-.392-.465-.774-.705-1.146zm3.063.675c.484.15.944.317 1.375.498 1.732.74 2.852 1.708 2.852 2.476-.005.768-1.125 1.74-2.857 2.475-.42.18-.88.342-1.355.493-.28-.958-.646-1.956-1.1-2.98.45-1.017.81-2.01 1.085-2.964zm-13.395.004c.278.96.645 1.957 1.1 2.98-.45 1.017-.812 2.01-1.086 2.964-.484-.15-.944-.318-1.37-.5-1.732-.737-2.852-1.706-2.852-2.474 0-.768 1.12-1.742 2.852-2.476.42-.18.88-.342 1.356-.494zm11.678 4.28c.265.657.49 1.312.676 1.948-.64.157-1.316.29-2.016.39.24-.375.48-.762.705-1.158.225-.39.435-.788.636-1.18zm-9.945.02c.2.392.41.783.64 1.175.23.39.465.772.705 1.143-.695-.102-1.365-.23-2.006-.386.18-.63.406-1.282.66-1.933zM17.92 16.32c.112.493.2.968.254 1.423.23 1.868-.054 3.32-.714 3.708-.147.09-.338.128-.563.128-1.012 0-2.514-.807-4.11-2.28.686-.72 1.37-1.536 2.02-2.44 1.107-.118 2.154-.3 3.113-.54zm-11.83.01c.96.234 2.006.415 3.107.532.66.905 1.345 1.727 2.035 2.446-1.595 1.483-3.092 2.295-4.11 2.295-.22-.005-.406-.05-.553-.132-.666-.38-.955-1.834-.73-3.703.054-.46.142-.944.25-1.438zm4.56.64c.44.02.89.034 1.345.034.46 0 .915-.01 1.36-.034-.44.572-.895 1.095-1.345 1.565-.455-.47-.91-.993-1.36-1.565z" fill="#000000" fill-opacity="0.9"/></g><text x="37" y="22.5" font-size="13" fill="#1c1c1c">React</text></g><g transform="translate(349,46)" opacity="0"><animate attributeName="opacity" from="0" to="1" begin="0.36s" dur="0.45s" fill="freeze"/><animateTransform attributeName="transform" type="translate" additive="sum" from="0 10" to="0 0" begin="0.36s" dur="0.45s" fill="freeze"/><rect width="129" height="36" rx="18" fill="#000000" fill-opacity="0.035" stroke="#000000" stroke-opacity="0.18"/><g transform="translate(13,10.0) scale(0.6666666666666666)"><path d="M1.125 0C.502 0 0 .502 0 1.125v21.75C0 23.498.502 24 1.125 24h21.75c.623 0 1.125-.502 1.125-1.125V1.125C24 .502 23.498 0 22.875 0zm17.363 9.75c.612 0 1.154.037 1.627.111a6.38 6.38 0 0 1 1.306.34v2.458a3.95 3.95 0 0 0-.643-.361 5.093 5.093 0 0 0-.717-.26 5.453 5.453 0 0 0-1.426-.2c-.3 0-.573.028-.819.086a2.1 2.1 0 0 0-.623.242c-.17.104-.3.229-.393.374a.888.888 0 0 0-.14.49c0 .196.053.373.156.529.104.156.252.304.443.444s.423.276.696.41c.273.135.582.274.926.416.47.197.892.407 1.266.628.374.222.695.473.963.753.268.279.472.598.614.957.142.359.214.776.214 1.253 0 .657-.125 1.21-.373 1.656a3.033 3.033 0 0 1-1.012 1.085 4.38 4.38 0 0 1-1.487.596c-.566.12-1.163.18-1.79.18a9.916 9.916 0 0 1-1.84-.164 5.544 5.544 0 0 1-1.512-.493v-2.63a5.033 5.033 0 0 0 3.237 1.2c.333 0 .624-.03.872-.09.249-.06.456-.144.623-.25.166-.108.29-.234.373-.38a1.023 1.023 0 0 0-.074-1.089 2.12 2.12 0 0 0-.537-.5 5.597 5.597 0 0 0-.807-.444 27.72 27.72 0 0 0-1.007-.436c-.918-.383-1.602-.852-2.053-1.405-.45-.553-.676-1.222-.676-2.005 0-.614.123-1.141.369-1.582.246-.441.58-.804 1.004-1.089a4.494 4.494 0 0 1 1.47-.629 7.536 7.536 0 0 1 1.77-.201zm-15.113.188h9.563v2.166H9.506v9.646H6.789v-9.646H3.375z" fill="#000000" fill-opacity="0.9"/></g><text x="37" y="22.5" font-size="13" fill="#1c1c1c">TypeScript</text></g><g transform="translate(488,46)" opacity="0"><animate attributeName="opacity" from="0" to="1" begin="0.43s" dur="0.45s" fill="freeze"/><animateTransform attributeName="transform" type="translate" additive="sum" from="0 10" to="0 0" begin="0.43s" dur="0.45s" fill="freeze"/><rect width="129" height="36" rx="18" fill="#000000" fill-opacity="0.035" stroke="#000000" stroke-opacity="0.18"/><g transform="translate(13,10.0) scale(0.6666666666666666)"><path d="M0 0h24v24H0V0zm22.034 18.276c-.175-1.095-.888-2.015-3.003-2.873-.736-.345-1.554-.585-1.797-1.14-.091-.33-.105-.51-.046-.705.15-.646.915-.84 1.515-.66.39.12.75.42.976.9 1.034-.676 1.034-.676 1.755-1.125-.27-.42-.404-.601-.586-.78-.63-.705-1.469-1.065-2.834-1.034l-.705.089c-.676.165-1.32.525-1.71 1.005-1.14 1.291-.811 3.541.569 4.471 1.365 1.02 3.361 1.244 3.616 2.205.24 1.17-.87 1.545-1.966 1.41-.811-.18-1.26-.586-1.755-1.336l-1.83 1.051c.21.48.45.689.81 1.109 1.74 1.756 6.09 1.666 6.871-1.004.029-.09.24-.705.074-1.65l.046.067zm-8.983-7.245h-2.248c0 1.938-.009 3.864-.009 5.805 0 1.232.063 2.363-.138 2.711-.33.689-1.18.601-1.566.48-.396-.196-.597-.466-.83-.855-.063-.105-.11-.196-.127-.196l-1.825 1.125c.305.63.75 1.172 1.324 1.517.855.51 2.004.675 3.207.405.783-.226 1.458-.691 1.811-1.411.51-.93.402-2.07.397-3.346.012-2.054 0-4.109 0-6.179l.004-.056z" fill="#000000" fill-opacity="0.9"/></g><text x="37" y="22.5" font-size="13" fill="#1c1c1c">JavaScript</text></g><g transform="translate(627,46)" opacity="0"><animate attributeName="opacity" from="0" to="1" begin="0.50s" dur="0.45s" fill="freeze"/><animateTransform attributeName="transform" type="translate" additive="sum" from="0 10" to="0 0" begin="0.50s" dur="0.45s" fill="freeze"/><rect width="97" height="36" rx="18" fill="#000000" fill-opacity="0.035" stroke="#000000" stroke-opacity="0.18"/><g transform="translate(13,10.0) scale(0.6666666666666666)"><path d="M14.25.18l.9.2.73.26.59.3.45.32.34.34.25.34.16.33.1.3.04.26.02.2-.01.13V8.5l-.05.63-.13.55-.21.46-.26.38-.3.31-.33.25-.35.19-.35.14-.33.1-.3.07-.26.04-.21.02H8.77l-.69.05-.59.14-.5.22-.41.27-.33.32-.27.35-.2.36-.15.37-.1.35-.07.32-.04.27-.02.21v3.06H3.17l-.21-.03-.28-.07-.32-.12-.35-.18-.36-.26-.36-.36-.35-.46-.32-.59-.28-.73-.21-.88-.14-1.05-.05-1.23.06-1.22.16-1.04.24-.87.32-.71.36-.57.4-.44.42-.33.42-.24.4-.16.36-.1.32-.05.24-.01h.16l.06.01h8.16v-.83H6.18l-.01-2.75-.02-.37.05-.34.11-.31.17-.28.25-.26.31-.23.38-.2.44-.18.51-.15.58-.12.64-.1.71-.06.77-.04.84-.02 1.27.05zm-6.3 1.98l-.23.33-.08.41.08.41.23.34.33.22.41.09.41-.09.33-.22.23-.34.08-.41-.08-.41-.23-.33-.33-.22-.41-.09-.41.09zm13.09 3.95l.28.06.32.12.35.18.36.27.36.35.35.47.32.59.28.73.21.88.14 1.04.05 1.23-.06 1.23-.16 1.04-.24.86-.32.71-.36.57-.4.45-.42.33-.42.24-.4.16-.36.09-.32.05-.24.02-.16-.01h-8.22v.82h5.84l.01 2.76.02.36-.05.34-.11.31-.17.29-.25.25-.31.24-.38.2-.44.17-.51.15-.58.13-.64.09-.71.07-.77.04-.84.01-1.27-.04-1.07-.14-.9-.2-.73-.25-.59-.3-.45-.33-.34-.34-.25-.34-.16-.33-.1-.3-.04-.25-.02-.2.01-.13v-5.34l.05-.64.13-.54.21-.46.26-.38.3-.32.33-.24.35-.2.35-.14.33-.1.3-.06.26-.04.21-.02.13-.01h5.84l.69-.05.59-.14.5-.21.41-.28.33-.32.27-.35.2-.36.15-.36.1-.35.07-.32.04-.28.02-.21V6.07h2.09l.14.01zm-6.47 14.25l-.23.33-.08.41.08.41.23.33.33.23.41.08.41-.08.33-.23.23-.33.08-.41-.08-.41-.23-.33-.33-.23-.41-.08-.41.08z" fill="#000000" fill-opacity="0.9"/></g><text x="37" y="22.5" font-size="13" fill="#1c1c1c">Python</text></g><g transform="translate(734,46)" opacity="0"><animate attributeName="opacity" from="0" to="1" begin="0.57s" dur="0.45s" fill="freeze"/><animateTransform attributeName="transform" type="translate" additive="sum" from="0 10" to="0 0" begin="0.57s" dur="0.45s" fill="freeze"/><rect width="105" height="36" rx="18" fill="#000000" fill-opacity="0.035" stroke="#000000" stroke-opacity="0.18"/><g transform="translate(13,10.0) scale(0.6666666666666666)"><path d="M12 .0387C5.3729.0384.0003 5.3931 0 11.9988c-.001 6.6066 5.372 11.9628 12 11.9625 6.628.0003 12.001-5.3559 12-11.9625-.0003-6.6057-5.3729-11.9604-12-11.96m-.829 5.4153h7.55l-7.5805 5.3284h5.1828L5.279 18.5436q2.9466-6.5444 5.892-13.0896" fill="#000000" fill-opacity="0.9"/></g><text x="37" y="22.5" font-size="13" fill="#1c1c1c">FastAPI</text></g><g transform="translate(4,94)" opacity="0"><animate attributeName="opacity" from="0" to="1" begin="0.64s" dur="0.45s" fill="freeze"/><animateTransform attributeName="transform" type="translate" additive="sum" from="0 10" to="0 0" begin="0.64s" dur="0.45s" fill="freeze"/><rect width="121" height="36" rx="18" fill="#000000" fill-opacity="0.035" stroke="#000000" stroke-opacity="0.18"/><g transform="translate(13,10.0) scale(0.6666666666666666)"><path d="M11.77 11.24H9.956V8.202h2.152c1.17 0 1.834.522 1.834 1.466 0 1.008-.773 1.572-2.174 1.572zm.324 1.206H9.957v3.348h2.231c1.459 0 2.232-.585 2.232-1.685s-.795-1.663-2.326-1.663zM24 11.39v1.218c-1.128.108-1.817.944-2.226 2.268-.407 1.319-.463 2.937-.42 4.186.045 1.3-.968 2.5-2.337 2.5H4.985c-1.37 0-2.383-1.2-2.337-2.5.043-1.249-.013-2.867-.42-4.186-.41-1.324-1.1-2.16-2.228-2.268V11.39c1.128-.108 1.819-.944 2.227-2.268.408-1.319.464-2.937.42-4.186-.045-1.3.968-2.5 2.338-2.5h14.032c1.37 0 2.382 1.2 2.337 2.5-.043 1.249.013 2.867.42 4.186.409 1.324 1.098 2.16 2.226 2.268zm-7.927 2.817c0-1.354-.953-2.333-2.368-2.488v-.057c1.04-.169 1.856-1.135 1.856-2.213 0-1.537-1.213-2.538-3.062-2.538h-4.16v10.172h4.181c2.218 0 3.553-1.086 3.553-2.876z" fill="#000000" fill-opacity="0.9"/></g><text x="37" y="22.5" font-size="13" fill="#1c1c1c">Bootstrap</text></g><g transform="translate(135,94)" opacity="0"><animate attributeName="opacity" from="0" to="1" begin="0.71s" dur="0.45s" fill="freeze"/><animateTransform attributeName="transform" type="translate" additive="sum" from="0 10" to="0 0" begin="0.71s" dur="0.45s" fill="freeze"/><rect width="97" height="36" rx="18" fill="#000000" fill-opacity="0.035" stroke="#000000" stroke-opacity="0.18"/><g transform="translate(13,10.0) scale(0.6666666666666666)"><path d="M1.525 5.87c-2.126 3.054-1.862 7.026-.237 10.269.037.079.078.154.118.229.023.052.049.1.077.15.013.027.031.056.047.082.026.052.054.102.081.152l.157.266c.03.049.057.097.09.146.056.094.12.187.178.281.026.04.05.078.079.117a6.368 6.368 0 00.31.445c.078.107.156.211.24.315.027.038.058.076.086.115l.22.269c.028.03.055.067.084.099.098.118.202.233.306.35l.005.006a3.134 3.134 0 00.425.44c.08.083.16.165.245.245l.101.097c.111.105.223.209.34.309.002 0 .003.002.005.003l.057.05c.102.089.205.178.31.26l.125.105c.085.068.174.133.26.2l.137.105c.093.07.192.139.287.207.035.025.07.05.106.073l.03.023.28.185.12.08c.148.094.294.184.44.272.041.02.084.044.123.068.108.062.22.125.329.183.06.034.122.063.184.094.075.042.153.083.234.125a.324.324 0 01.056.023c.033.015.064.031.096.047.12.06.245.118.375.175.024.01.05.02.076.034.144.063.289.123.438.182.034.01.07.027.105.04.135.051.274.103.411.152l.05.018c.154.052.305.102.46.15.036.01.073.023.111.033.16.048.314.105.474.137 10.273 1.872 13.258-6.177 13.258-6.177-2.508 3.266-6.958 4.127-11.174 3.169-.156-.036-.312-.086-.47-.132a13.539 13.539 0 01-.567-.182l-.062-.024c-.136-.046-.267-.097-.4-.148a1.615 1.615 0 00-.11-.04c-.148-.06-.29-.121-.433-.184-.031-.01-.057-.024-.088-.036a23.44 23.44 0 01-.362-.17 1.485 1.485 0 01-.106-.052c-.094-.044-.188-.095-.28-.143a3.947 3.947 0 01-.187-.096c-.114-.06-.227-.125-.34-.187-.034-.024-.073-.044-.112-.066a15.922 15.922 0 01-.439-.27 2.107 2.107 0 01-.118-.078 6.01 6.01 0 01-.312-.207c-.035-.023-.067-.048-.103-.073a9.553 9.553 0 01-.295-.212c-.042-.034-.087-.066-.132-.1-.088-.07-.177-.135-.265-.208l-.118-.095a10.593 10.593 0 01-.335-.28.258.258 0 00-.037-.031l-.347-.316-.1-.094c-.082-.084-.166-.164-.25-.246l-.098-.1a9.081 9.081 0 01-.309-.323l-.015-.016c-.106-.116-.21-.235-.313-.355-.027-.03-.053-.064-.08-.097l-.227-.277a21.275 21.275 0 01-.34-.449C2.152 11.79 1.306 7.384 3.177 3.771m4.943-.473c-1.54 2.211-1.454 5.169-.254 7.508a9.111 9.111 0 00.678 1.133c.23.33.484.721.793.988.107.122.223.24.344.36l.09.09c.114.11.232.217.35.325l.016.013a9.867 9.867 0 00.414.342c.034.023.063.05.096.073.14.108.282.212.428.316l.015.009c.062.045.128.086.198.13.028.018.06.042.09.06.106.068.21.132.318.197.017.007.032.016.048.023.09.055.188.108.282.157.033.02.065.035.1.054.066.033.132.068.197.102l.032.014c.135.067.273.129.408.19.034.014.063.025.092.039.111.048.224.094.336.137.05.017.097.037.144.052.102.038.21.073.31.108l.14.045c.147.045.295.104.449.13C22.164 17.206 24 11.098 24 11.098c-1.653 2.38-4.852 3.513-8.261 2.628a8.04 8.04 0 01-.449-.13c-.048-.014-.09-.029-.136-.043-.104-.036-.211-.07-.312-.109l-.144-.054c-.113-.045-.227-.087-.336-.135-.034-.015-.065-.025-.091-.04-.14-.063-.281-.125-.418-.192l-.206-.107-.119-.06a5.673 5.673 0 01-.265-.15.62.62 0 01-.062-.035c-.106-.066-.217-.13-.318-.198-.034-.019-.065-.042-.097-.062l-.208-.136c-.144-.1-.285-.208-.428-.313-.032-.029-.063-.053-.094-.079-1.499-1.178-2.681-2.79-3.242-4.613-.59-1.897-.46-4.023.56-5.75m4.292-.147c-.909 1.334-.996 2.99-.37 4.46.665 1.563 2.024 2.79 3.608 3.37.065.025.128.046.196.07l.088.027c.092.03.185.063.28.084 4.381.845 5.567-2.25 5.886-2.704-1.043 1.498-2.792 1.857-4.938 1.335a4.85 4.85 0 01-.516-.16 6.352 6.352 0 01-.618-.254 6.53 6.53 0 01-1.082-.66c-1.922-1.457-3.113-4.236-1.859-6.5" fill="#000000" fill-opacity="0.9"/></g><text x="37" y="22.5" font-size="13" fill="#1c1c1c">jQuery</text></g><text x="4" y="182" font-size="12" letter-spacing="3" fill="#7a7a7a">AI & AGENTS</text><line x1="106.5" y1="177" x2="876" y2="177" stroke="#000000" stroke-opacity="0.12" stroke-dasharray="4 6"><animate attributeName="stroke-dashoffset" from="0" to="-100" dur="8s" repeatCount="indefinite"/></line><g transform="translate(4,198)" opacity="0"><animate attributeName="opacity" from="0" to="1" begin="0.78s" dur="0.45s" fill="freeze"/><animateTransform attributeName="transform" type="translate" additive="sum" from="0 10" to="0 0" begin="0.78s" dur="0.45s" fill="freeze"/><rect width="73" height="36" rx="18" fill="#000000" fill-opacity="0.035" stroke="#000000" stroke-opacity="0.18"/><g transform="translate(13,10.0) scale(0.6666666666666666)"><path d="M21.4737 5.6842c-1.1772 0-2.1663.8051-2.4468 1.8947h-2.8955c-1.235 0-2.289.893-2.492 2.111l-.1038.623a1.263 1.263 0 0 1-1.246 1.0555H11.289c-.2805-1.0896-1.2696-1.8947-2.4468-1.8947s-2.1663.8051-2.4467 1.8947H4.973c-.2805-1.0896-1.2696-1.8947-2.4468-1.8947C1.1311 9.4737 0 10.6047 0 12s1.131 2.5263 2.5263 2.5263c1.1772 0 2.1663-.8051 2.4468-1.8947h1.4223c.2804 1.0896 1.2696 1.8947 2.4467 1.8947 1.1772 0 2.1663-.8051 2.4468-1.8947h1.0008a1.263 1.263 0 0 1 1.2459 1.0555l.1038.623c.203 1.218 1.257 2.111 2.492 2.111h.3692c.2804 1.0895 1.2696 1.8947 2.4468 1.8947 1.3952 0 2.5263-1.131 2.5263-2.5263s-1.131-2.5263-2.5263-2.5263c-1.1772 0-2.1664.805-2.4468 1.8947h-.3692a1.263 1.263 0 0 1-1.246-1.0555l-.1037-.623A2.52 2.52 0 0 0 13.9607 12a2.52 2.52 0 0 0 .821-1.4794l.1038-.623a1.263 1.263 0 0 1 1.2459-1.0555h2.8955c.2805 1.0896 1.2696 1.8947 2.4468 1.8947 1.3952 0 2.5263-1.131 2.5263-2.5263s-1.131-2.5263-2.5263-2.5263m0 1.2632a1.263 1.263 0 0 1 1.2631 1.2631 1.263 1.263 0 0 1-1.2631 1.2632 1.263 1.263 0 0 1-1.2632-1.2632 1.263 1.263 0 0 1 1.2632-1.2631M2.5263 10.7368A1.263 1.263 0 0 1 3.7895 12a1.263 1.263 0 0 1-1.2632 1.2632A1.263 1.263 0 0 1 1.2632 12a1.263 1.263 0 0 1 1.2631-1.2632m6.3158 0A1.263 1.263 0 0 1 10.1053 12a1.263 1.263 0 0 1-1.2632 1.2632A1.263 1.263 0 0 1 7.579 12a1.263 1.263 0 0 1 1.2632-1.2632m10.1053 3.7895a1.263 1.263 0 0 1 1.2631 1.2632 1.263 1.263 0 0 1-1.2631 1.2631 1.263 1.263 0 0 1-1.2632-1.2631 1.263 1.263 0 0 1 1.2632-1.2632" fill="#000000" fill-opacity="0.9"/></g><text x="37" y="22.5" font-size="13" fill="#1c1c1c">n8n</text></g><g transform="translate(87,198)" opacity="0"><animate attributeName="opacity" from="0" to="1" begin="0.85s" dur="0.45s" fill="freeze"/><animateTransform attributeName="transform" type="translate" additive="sum" from="0 10" to="0 0" begin="0.85s" dur="0.45s" fill="freeze"/><rect width="121" height="36" rx="18" fill="#000000" fill-opacity="0.035" stroke="#000000" stroke-opacity="0.18"/><g transform="translate(13,10.0) scale(0.6666666666666666)"><path d="M6.0988 5.9175C2.7359 5.9175 0 8.6462 0 12s2.736 6.0825 6.0988 6.0825h11.8024C21.2641 18.0825 24 15.3538 24 12s-2.736-6.0825-6.0988-6.0825ZM5.9774 7.851c.493.0124 1.02.2496 1.273.6228.3673.4592.4778 1.0668.8944 1.4932.5604.6118 1.199 1.1505 1.7161 1.802.4892.5954.8386 1.2937 1.1436 1.9975.1244.2335.1257.5202.31.7197.0908.1204.5346.4483.4383.5645.0555.1204.4702.286.3263.4027-.1944.04-.4129.0476-.5616-.1074-.0549.126-.183.0596-.2819.0432a4 4 0 0 0-.025.0736c-.3288.0219-.5754-.3126-.732-.565-.3111-.168-.6642-.2702-.982-.446-.0182.2895.0452.6485-.231.8353-.014.5565.8436.0656.9222.4804-.061.0067-.1286-.0095-.1774.0373-.2239.2172-.4805-.1645-.7385-.007-.3464.174-.3808.3161-.8096.352-.0237-.0359-.0143-.0592.0059-.0811.1207-.1399.1295-.3046.3356-.3643-.2122-.0334-.3899.0833-.5686.1757-.2323.095-.2304-.2141-.5878.0164-.0396-.0322-.0208-.0615.0018-.0864.0908-.1107.2102-.127.345-.1208-.663-.3686-.9751.4507-1.2813.0432-.092.0243-.1265.1068-.1845.1652-.05-.0548-.0123-.1212-.0099-.1857-.0598-.028-.1356-.041-.1179-.1366-.1171-.0395-.1988.0295-.286.0952-.0787-.0608.0532-.1492.0776-.2125.0702-.1216.23-.025.3111-.1126.2306-.1308.552.0814.8155.0455.203.0255.4544-.1825.3526-.39-.2171-.2767-.179-.6386-.1839-.9695-.0268-.1929-.491-.4382-.6252-.6462-.1659-.1873-.295-.4047-.4243-.6182-.4666-.9008-.3198-2.0584-.9077-2.8947-.266.1466-.6125.0774-.8418-.119-.1238.1125-.1292.2598-.139.4161-.297-.2962-.2593-.8559-.022-1.1855.0969-.1302.2127-.2373.342-.3316.0292-.0213.0391-.0419.0385-.0747.1174-.5267.5764-.7391 1.0694-.7267m12.4071.46c.5575 0 1.0806.2159 1.474.6082s.61.9145.61 1.4704c0 .556-.2167 1.078-.61 1.4698v.0006l-.902.8995a2.08 2.08 0 0 1-.8597.5166l-.0164.0047-.0058.0164a2.05 2.05 0 0 1-.474.7308l-.9018.8995c-.3934.3924-.917.6083-1.4745.6083s-1.0806-.216-1.474-.6083c-.813-.8107-.813-2.1294 0-2.9402l.9019-.8995a2.056 2.056 0 0 1 .858-.5143l.017-.0053.0058-.0158a2.07 2.07 0 0 1 .4752-.7337l.9018-.8995c.3934-.3924.9171-.6083 1.4745-.6083zm0 .8965a1.18 1.18 0 0 0-.8388.3462l-.9018.8995a1.181 1.181 0 0 0-.3427.9252l.0053.0572c.0323.2652.149.5044.3374.6917.13.1296.2733.2114.4471.2686a.9.9 0 0 1 .014.1582.884.884 0 0 1-.2609.6304l-.0554.0554c-.3013-.1028-.5525-.253-.7794-.4792a2.06 2.06 0 0 1-.5761-1.0968l-.0099-.0578-.0461.0368a1.1 1.1 0 0 0-.0876.0794l-.9024.8995c-.4623.461-.4623 1.212 0 1.673.2311.2305.535.346.8394.3461.3043 0 .6077-.1156.8388-.3462l.9019-.8995c.4623-.461.4623-1.2113 0-1.673a1.17 1.17 0 0 0-.4367-.2749 1 1 0 0 1-.014-.1611c0-.2591.1023-.505.2901-.6923.3019.1028.57.2694.7962.495.3007.2999.4994.679.5756 1.0968l.0105.0578.0455-.0373a1.1 1.1 0 0 0 .0887-.0794l.902-.8996c.4622-.461.4628-1.2124 0-1.6735a1.18 1.18 0 0 0-.8395-.3462Zm-9.973 5.1567-.0006.0006c-.0793.3078-.1048.8318-.506.847-.033.1776.1228.2445.2655.1874.141-.0645.2081.0508.2557.1657.2177.0317.5394-.0725.5516-.3298-.325-.1867-.4253-.5418-.5662-.8709" fill="#000000" fill-opacity="0.9"/></g><text x="37" y="22.5" font-size="13" fill="#1c1c1c">LangChain</text></g><g transform="translate(218,198)" opacity="0"><animate attributeName="opacity" from="0" to="1" begin="0.92s" dur="0.45s" fill="freeze"/><animateTransform attributeName="transform" type="translate" additive="sum" from="0 10" to="0 0" begin="0.92s" dur="0.45s" fill="freeze"/><rect width="97" height="36" rx="18" fill="#000000" fill-opacity="0.035" stroke="#000000" stroke-opacity="0.18"/><g transform="translate(13,10.0) scale(0.6666666666666666)"><path d="M22.2819 9.8211a5.9847 5.9847 0 0 0-.5157-4.9108 6.0462 6.0462 0 0 0-6.5098-2.9A6.0651 6.0651 0 0 0 4.9807 4.1818a5.9847 5.9847 0 0 0-3.9977 2.9 6.0462 6.0462 0 0 0 .7427 7.0966 5.98 5.98 0 0 0 .511 4.9107 6.051 6.051 0 0 0 6.5146 2.9001A5.9847 5.9847 0 0 0 13.2599 24a6.0557 6.0557 0 0 0 5.7718-4.2058 5.9894 5.9894 0 0 0 3.9977-2.9001 6.0557 6.0557 0 0 0-.7475-7.0729zm-9.022 12.6081a4.4755 4.4755 0 0 1-2.8764-1.0408l.1419-.0804 4.7783-2.7582a.7948.7948 0 0 0 .3927-.6813v-6.7369l2.02 1.1686a.071.071 0 0 1 .038.052v5.5826a4.504 4.504 0 0 1-4.4945 4.4944zm-9.6607-4.1254a4.4708 4.4708 0 0 1-.5346-3.0137l.142.0852 4.783 2.7582a.7712.7712 0 0 0 .7806 0l5.8428-3.3685v2.3324a.0804.0804 0 0 1-.0332.0615L9.74 19.9502a4.4992 4.4992 0 0 1-6.1408-1.6464zM2.3408 7.8956a4.485 4.485 0 0 1 2.3655-1.9728V11.6a.7664.7664 0 0 0 .3879.6765l5.8144 3.3543-2.0201 1.1685a.0757.0757 0 0 1-.071 0l-4.8303-2.7865A4.504 4.504 0 0 1 2.3408 7.872zm16.5963 3.8558L13.1038 8.364 15.1192 7.2a.0757.0757 0 0 1 .071 0l4.8303 2.7913a4.4944 4.4944 0 0 1-.6765 8.1042v-5.6772a.79.79 0 0 0-.407-.667zm2.0107-3.0231l-.142-.0852-4.7735-2.7818a.7759.7759 0 0 0-.7854 0L9.409 9.2297V6.8974a.0662.0662 0 0 1 .0284-.0615l4.8303-2.7866a4.4992 4.4992 0 0 1 6.6802 4.66zM8.3065 12.863l-2.02-1.1638a.0804.0804 0 0 1-.038-.0567V6.0742a4.4992 4.4992 0 0 1 7.3757-3.4537l-.142.0805L8.704 5.459a.7948.7948 0 0 0-.3927.6813zm1.0976-2.3654l2.602-1.4998 2.6069 1.4998v2.9994l-2.5974 1.4997-2.6067-1.4997Z" fill="#000000" fill-opacity="0.9"/></g><text x="37" y="22.5" font-size="13" fill="#1c1c1c">OpenAI</text></g><g transform="translate(325,198)" opacity="0"><animate attributeName="opacity" from="0" to="1" begin="0.99s" dur="0.45s" fill="freeze"/><animateTransform attributeName="transform" type="translate" additive="sum" from="0 10" to="0 0" begin="0.99s" dur="0.45s" fill="freeze"/><rect width="97" height="36" rx="18" fill="#000000" fill-opacity="0.035" stroke="#000000" stroke-opacity="0.18"/><g transform="translate(13,10.0) scale(0.6666666666666666)"><path d="M17.3041 3.541h-3.6718l6.696 16.918H24Zm-10.6082 0L0 20.459h3.7442l1.3693-3.5527h7.0052l1.3693 3.5528h3.7442L10.5363 3.5409Zm-.3712 10.2232 2.2914-5.9456 2.2914 5.9456Z" fill="#000000" fill-opacity="0.9"/></g><text x="37" y="22.5" font-size="13" fill="#1c1c1c">Claude</text></g><g transform="translate(432,198)" opacity="0"><animate attributeName="opacity" from="0" to="1" begin="1.06s" dur="0.45s" fill="freeze"/><animateTransform attributeName="transform" type="translate" additive="sum" from="0 10" to="0 0" begin="1.06s" dur="0.45s" fill="freeze"/><rect width="97" height="36" rx="18" fill="#000000" fill-opacity="0.035" stroke="#000000" stroke-opacity="0.18"/><g transform="translate(13,10.0) scale(0.6666666666666666)"><path d="M11.04 19.32Q12 21.51 12 24q0-2.49.93-4.68.96-2.19 2.58-3.81t3.81-2.55Q21.51 12 24 12q-2.49 0-4.68-.93a12.3 12.3 0 0 1-3.81-2.58 12.3 12.3 0 0 1-2.58-3.81Q12 2.49 12 0q0 2.49-.96 4.68-.93 2.19-2.55 3.81a12.3 12.3 0 0 1-3.81 2.58Q2.49 12 0 12q2.49 0 4.68.96 2.19.93 3.81 2.55t2.55 3.81" fill="#000000" fill-opacity="0.9"/></g><text x="37" y="22.5" font-size="13" fill="#1c1c1c">Gemini</text></g><g transform="translate(539,198)" opacity="0"><animate attributeName="opacity" from="0" to="1" begin="1.13s" dur="0.45s" fill="freeze"/><animateTransform attributeName="transform" type="translate" additive="sum" from="0 10" to="0 0" begin="1.13s" dur="0.45s" fill="freeze"/><rect width="97" height="36" rx="18" fill="#000000" fill-opacity="0.035" stroke="#000000" stroke-opacity="0.18"/><g transform="translate(13,10.0) scale(0.6666666666666666)"><path d="M16.361 10.26a.894.894 0 0 0-.558.47l-.072.148.001.207c0 .193.004.217.059.353.076.193.152.312.291.448.24.238.51.3.872.205a.86.86 0 0 0 .517-.436.752.752 0 0 0 .08-.498c-.064-.453-.33-.782-.724-.897a1.06 1.06 0 0 0-.466 0zm-9.203.005c-.305.096-.533.32-.65.639a1.187 1.187 0 0 0-.06.52c.057.309.31.59.598.667.362.095.632.033.872-.205.14-.136.215-.255.291-.448.055-.136.059-.16.059-.353l.001-.207-.072-.148a.894.894 0 0 0-.565-.472 1.02 1.02 0 0 0-.474.007Zm4.184 2c-.131.071-.223.25-.195.383.031.143.157.288.353.407.105.063.112.072.117.136.004.038-.01.146-.029.243-.02.094-.036.194-.036.222.002.074.07.195.143.253.064.052.076.054.255.059.164.005.198.001.264-.03.169-.082.212-.234.15-.525-.052-.243-.042-.28.087-.355.137-.08.281-.219.324-.314a.365.365 0 0 0-.175-.48.394.394 0 0 0-.181-.033c-.126 0-.207.03-.355.124l-.085.053-.053-.032c-.219-.13-.259-.145-.391-.143a.396.396 0 0 0-.193.032zm.39-2.195c-.373.036-.475.05-.654.086-.291.06-.68.195-.951.328-.94.46-1.589 1.226-1.787 2.114-.04.176-.045.234-.045.53 0 .294.005.357.043.524.264 1.16 1.332 2.017 2.714 2.173.3.033 1.596.033 1.896 0 1.11-.125 2.064-.727 2.493-1.571.114-.226.169-.372.22-.602.039-.167.044-.23.044-.523 0-.297-.005-.355-.045-.531-.288-1.29-1.539-2.304-3.072-2.497a6.873 6.873 0 0 0-.855-.031zm.645.937a3.283 3.283 0 0 1 1.44.514c.223.148.537.458.671.662.166.251.26.508.303.82.02.143.01.251-.043.482-.08.345-.332.705-.672.957a3.115 3.115 0 0 1-.689.348c-.382.122-.632.144-1.525.138-.582-.006-.686-.01-.853-.042-.57-.107-1.022-.334-1.35-.68-.264-.28-.385-.535-.45-.946-.03-.192.025-.509.137-.776.136-.326.488-.73.836-.963.403-.269.934-.46 1.422-.512.187-.02.586-.02.773-.002zm-5.503-11a1.653 1.653 0 0 0-.683.298C5.617.74 5.173 1.666 4.985 2.819c-.07.436-.119 1.04-.119 1.503 0 .544.064 1.24.155 1.721.02.107.031.202.023.208a8.12 8.12 0 0 1-.187.152 5.324 5.324 0 0 0-.949 1.02 5.49 5.49 0 0 0-.94 2.339 6.625 6.625 0 0 0-.023 1.357c.091.78.325 1.438.727 2.04l.13.195-.037.064c-.269.452-.498 1.105-.605 1.732-.084.496-.095.629-.095 1.294 0 .67.009.803.088 1.266.095.555.288 1.143.503 1.534.071.128.243.393.264.407.007.003-.014.067-.046.141a7.405 7.405 0 0 0-.548 1.873c-.062.417-.071.552-.071.991 0 .56.031.832.148 1.279L3.42 24h1.478l-.05-.091c-.297-.552-.325-1.575-.068-2.597.117-.472.25-.819.498-1.296l.148-.29v-.177c0-.165-.003-.184-.057-.293a.915.915 0 0 0-.194-.25 1.74 1.74 0 0 1-.385-.543c-.424-.92-.506-2.286-.208-3.451.124-.486.329-.918.544-1.154a.787.787 0 0 0 .223-.531c0-.195-.07-.355-.224-.522a3.136 3.136 0 0 1-.817-1.729c-.14-.96.114-2.005.69-2.834.563-.814 1.353-1.336 2.237-1.475.199-.033.57-.028.776.01.226.04.367.028.512-.041.179-.085.268-.19.374-.431.093-.215.165-.333.36-.576.234-.29.46-.489.822-.729.413-.27.884-.467 1.352-.561.17-.035.25-.04.569-.04.319 0 .398.005.569.04a4.07 4.07 0 0 1 1.914.997c.117.109.398.457.488.602.034.057.095.177.132.267.105.241.195.346.374.43.14.068.286.082.503.045.343-.058.607-.053.943.016 1.144.23 2.14 1.173 2.581 2.437.385 1.108.276 2.267-.296 3.153-.097.15-.193.27-.333.419-.301.322-.301.722-.001 1.053.493.539.801 1.866.708 3.036-.062.772-.26 1.463-.533 1.854a2.096 2.096 0 0 1-.224.258.916.916 0 0 0-.194.25c-.054.109-.057.128-.057.293v.178l.148.29c.248.476.38.823.498 1.295.253 1.008.231 2.01-.059 2.581a.845.845 0 0 0-.044.098c0 .006.329.009.732.009h.73l.02-.074.036-.134c.019-.076.057-.3.088-.516.029-.217.029-1.016 0-1.258-.11-.875-.295-1.57-.597-2.226-.032-.074-.053-.138-.046-.141.008-.005.057-.074.108-.152.376-.569.607-1.284.724-2.228.031-.26.031-1.378 0-1.628-.083-.645-.182-1.082-.348-1.525a6.083 6.083 0 0 0-.329-.7l-.038-.064.131-.194c.402-.604.636-1.262.727-2.04a6.625 6.625 0 0 0-.024-1.358 5.512 5.512 0 0 0-.939-2.339 5.325 5.325 0 0 0-.95-1.02 8.097 8.097 0 0 1-.186-.152.692.692 0 0 1 .023-.208c.208-1.087.201-2.443-.017-3.503-.19-.924-.535-1.658-.98-2.082-.354-.338-.716-.482-1.15-.455-.996.059-1.8 1.205-2.116 3.01a6.805 6.805 0 0 0-.097.726c0 .036-.007.066-.015.066a.96.96 0 0 1-.149-.078A4.857 4.857 0 0 0 12 3.03c-.832 0-1.687.243-2.456.698a.958.958 0 0 1-.148.078c-.008 0-.015-.03-.015-.066a6.71 6.71 0 0 0-.097-.725C8.997 1.392 8.337.319 7.46.048a2.096 2.096 0 0 0-.585-.041Zm.293 1.402c.248.197.523.759.682 1.388.03.113.06.244.069.292.007.047.026.152.041.233.067.365.098.76.102 1.24l.002.475-.12.175-.118.178h-.278c-.324 0-.646.041-.954.124l-.238.06c-.033.007-.038-.003-.057-.144a8.438 8.438 0 0 1 .016-2.323c.124-.788.413-1.501.696-1.711.067-.05.079-.049.157.013zm9.825-.012c.17.126.358.46.498.888.28.854.36 2.028.212 3.145-.019.14-.024.151-.057.144l-.238-.06a3.693 3.693 0 0 0-.954-.124h-.278l-.119-.178-.119-.175.002-.474c.004-.669.066-1.19.214-1.772.157-.623.434-1.185.68-1.382.078-.062.09-.063.159-.012z" fill="#000000" fill-opacity="0.9"/></g><text x="37" y="22.5" font-size="13" fill="#1c1c1c">Ollama</text></g><g transform="translate(646,198)" opacity="0"><animate attributeName="opacity" from="0" to="1" begin="1.20s" dur="0.45s" fill="freeze"/><animateTransform attributeName="transform" type="translate" additive="sum" from="0 10" to="0 0" begin="1.20s" dur="0.45s" fill="freeze"/><rect width="129" height="36" rx="18" fill="#000000" fill-opacity="0.035" stroke="#000000" stroke-opacity="0.18"/><g transform="translate(13,10.0) scale(0.6666666666666666)"><path d="M4.6035 0v24h4.9317V0zm9.8613 0v24h4.9317V0z" fill="#000000" fill-opacity="0.9"/></g><text x="37" y="22.5" font-size="13" fill="#1c1c1c">ElevenLabs</text></g><g transform="translate(4,246)" opacity="0"><animate attributeName="opacity" from="0" to="1" begin="1.27s" dur="0.45s" fill="freeze"/><animateTransform attributeName="transform" type="translate" additive="sum" from="0 10" to="0 0" begin="1.27s" dur="0.45s" fill="freeze"/><rect width="144" height="36" rx="18" fill="#000000" fill-opacity="0.035" stroke="#000000" stroke-opacity="0.18"/><g transform="translate(13,10.0) scale(0.6666666666666666)"><path d="M15.601 5.53c-1.91.035-3.981.91-5.63 2.56-2.93 2.93-2.083 8.53-1.088 9.525.805.804 6.595 1.843 9.526-1.088a9.74 9.74 0 0 0 .584-.643c.043-.292.205-.66.489-1.106a1.848 1.848 0 0 1-.537.176c-.144.265-.37.55-.676.855-.354.335-.607.554-.76.656a.795.795 0 0 1-.437.152c-.35 0-.514-.308-.494-.924-.22.316-.425.549-.612.7a.914.914 0 0 1-.578.224c-.194 0-.36-.09-.496-.273a1.03 1.03 0 0 1-.193-.507 4.016 4.016 0 0 1-.726.583c-.224.132-.47.197-.74.197-.3 0-.543-.096-.727-.288a.978.978 0 0 1-.257-.524v.004c-.3.276-.564.48-.79.611a1.295 1.295 0 0 1-.649.197.693.693 0 0 1-.571-.275c-.145-.183-.218-.43-.218-.739 0-.464.101-1.02.302-1.67.201-.65.445-1.25.733-1.797l.842-.312a.21.21 0 0 1 .06-.013c.063 0 .116.047.157.14.04.095.061.221.061.38 0 .451-.104.888-.312 1.31-.207.422-.532.873-.974 1.352-.018.23-.027.388-.027.474 0 .193.036.345.106.458.071.113.165.169.282.169a.71.71 0 0 0 .382-.13c.132-.084.333-.26.602-.523.028-.418.187-.798.482-1.142.324-.38.685-.569 1.08-.569.206 0 .37.054.494.16a.524.524 0 0 1 .186.417c0 .458-.486.829-1.459 1.114.088.43.32.646.693.646a.807.807 0 0 0 .417-.117c.129-.076.321-.243.575-.497.032-.252.118-.495.259-.728.182-.3.416-.544.701-.73.285-.185.537-.278.756-.278.276 0 .47.127.58.381l.677-.374h.186l-.292.971c-.15.488-.226.823-.226 1.004 0 .19.067.285.202.285.086 0 .181-.045.285-.137.104-.092.25-.232.437-.42v.001c.143-.155.274-.32.392-.494-.19-.084-.285-.21-.285-.375 0-.17.058-.352.174-.545.116-.194.275-.29.479-.29.172 0 .258.088.258.265 0 .139-.05.338-.149.596.367-.04.687-.32.961-.842l.228-.01c1.059-2.438.828-5.075-.83-6.732-1.019-1.02-2.408-1.5-3.895-1.471zm4.725 8.203a8.938 8.938 0 0 1-1.333 2.151 1.09 1.09 0 0 0-.012.147c0 .168.047.309.14.423.092.113.206.17.34.17.296 0 .714-.264 1.254-.787-.001.04-.003.08-.003.121 0 .146.012.368.036.666l.733-.172c0-.2.003-.357.01-.474.01-.157.033-.33.066-.517.02-.11.07-.216.152-.315l.186-.216a5.276 5.276 0 0 1 .378-.397c.062-.055.116-.099.162-.13a.26.26 0 0 1 .123-.046c.055 0 .083.035.083.106 0 .07-.052.236-.156.497-.194.486-.292.848-.292 1.084 0 .175.046.314.136.418a.45.45 0 0 0 .358.155c.365 0 .803-.269 1.313-.808v-.381c-.361.426-.623.64-.784.64-.109 0-.163-.067-.163-.2 0-.1.065-.316.195-.65.19-.486.285-.836.285-1.048a.464.464 0 0 0-.112-.319.36.36 0 0 0-.282-.127c-.165 0-.354.077-.567.233-.213.156-.5.436-.863.84.053-.262.165-.622.335-1.08l-.809.156a6.54 6.54 0 0 0-.399 1.074c-.04.156-.07.316-.092.48a7.447 7.447 0 0 1-.49.45.38.38 0 0 1-.229.08.208.208 0 0 1-.174-.082.352.352 0 0 1-.064-.222c0-.1.019-.214.056-.343.038-.13.12-.373.249-.731l.308-.849zm-17.21-2.927c-.863-.016-1.67.263-2.261.854-1.352 1.352-1.07 3.827.631 5.527 1.7 1.701 4.95 1.21 5.527.632.467-.466 1.07-3.827-.631-5.527-.957-.957-2.158-1.465-3.267-1.486zm12.285.358h.166v.21H15.4zm.427 0h.166v.865l.46-.455h.195l-.364.362.428.684h-.198l-.357-.575-.164.166v.41h-.166zm1.016 0h.166v.21h-.166zm.481.122h.166v.288h.172v.135h-.172v.717c0 .037.006.062.02.075.012.013.037.02.074.02a.23.23 0 0 0 .078-.01v.141a.802.802 0 0 1-.136.014.23.23 0 0 1-.15-.043.15.15 0 0 1-.052-.123v-.79h-.141v-.136h.141zm-3.562.258c.081 0 .15.012.207.038.057.024.1.061.13.11s.045.106.045.173h-.176c-.006-.111-.075-.167-.208-.167a.285.285 0 0 0-.164.041.134.134 0 0 0-.06.117c0 .035.015.065.045.088.03.024.08.044.15.06l.16.039a.47.47 0 0 1 .224.105c.047.046.07.108.07.186a.3.3 0 0 1-.052.175.327.327 0 0 1-.152.116.585.585 0 0 1-.226.041c-.136 0-.24-.03-.309-.088-.069-.059-.105-.149-.109-.269h.176c.004.037.01.065.017.084a.166.166 0 0 0 .034.054c.044.043.112.065.204.065a.31.31 0 0 0 .177-.045.139.139 0 0 0 .067-.119.116.116 0 0 0-.038-.09.287.287 0 0 0-.124-.055l-.156-.038a1.248 1.248 0 0 1-.159-.05.359.359 0 0 1-.098-.061.22.22 0 0 1-.058-.083.32.32 0 0 1-.016-.108c0-.096.036-.174.109-.232a.45.45 0 0 1 .29-.087zm1.035 0a.46.46 0 0 1 .202.043.351.351 0 0 1 .187.212.577.577 0 0 1 .023.126h-.168a.256.256 0 0 0-.078-.168.242.242 0 0 0-.17-.06.248.248 0 0 0-.155.05.306.306 0 0 0-.1.144.662.662 0 0 0-.034.224.58.58 0 0 0 .035.214.299.299 0 0 0 .101.135.261.261 0 0 0 .157.048c.142 0 .227-.084.256-.252h.167a.519.519 0 0 1-.065.22.35.35 0 0 1-.146.138.464.464 0 0 1-.216.048.448.448 0 0 1-.246-.066.441.441 0 0 1-.161-.192.703.703 0 0 1-.057-.293c0-.085.01-.163.032-.233a.522.522 0 0 1 .095-.182.403.403 0 0 1 .15-.117.453.453 0 0 1 .191-.04zm.603.03h.166v1.046H15.4zm1.443 0h.166v1.046h-.166zm-5.05.618c-.08 0-.2.204-.356.611-.155.407-.308.977-.459 1.71.281-.312.509-.662.683-1.05.175-.387.262-.72.262-.999a.455.455 0 0 0-.036-.197c-.025-.05-.056-.075-.093-.075zm4.662 1.797c-.221 0-.431.188-.629.563-.197.376-.296.722-.296 1.038 0 .12.029.216.088.29a.273.273 0 0 0 .223.111c.221 0 .43-.188.625-.565.196-.377.294-.725.294-1.043a.457.457 0 0 0-.083-.29.269.269 0 0 0-.222-.104zm-2.848.007c-.146 0-.285.11-.417.333-.133.222-.2.51-.2.866.566-.159.849-.452.849-.881 0-.212-.077-.318-.232-.318Z" fill="#000000" fill-opacity="0.9"/></g><text x="37" y="22.5" font-size="13" fill="#1c1c1c">scikit-learn</text></g><text x="4" y="334" font-size="12" letter-spacing="3" fill="#7a7a7a">DATA & CLOUD</text><line x1="114.0" y1="329" x2="876" y2="329" stroke="#000000" stroke-opacity="0.12" stroke-dasharray="4 6"><animate attributeName="stroke-dashoffset" from="0" to="-100" dur="8s" repeatCount="indefinite"/></line><g transform="translate(4,350)" opacity="0"><animate attributeName="opacity" from="0" to="1" begin="1.34s" dur="0.45s" fill="freeze"/><animateTransform attributeName="transform" type="translate" additive="sum" from="0 10" to="0 0" begin="1.34s" dur="0.45s" fill="freeze"/><rect width="107" height="36" rx="18" fill="#000000" fill-opacity="0.035" stroke="#000000" stroke-opacity="0.18"/><text x="13" y="22.5" font-size="13" fill="#1c1c1c">SQL Server</text></g><g transform="translate(121,350)" opacity="0"><animate attributeName="opacity" from="0" to="1" begin="1.41s" dur="0.45s" fill="freeze"/><animateTransform attributeName="transform" type="translate" additive="sum" from="0 10" to="0 0" begin="1.41s" dur="0.45s" fill="freeze"/><rect width="215" height="36" rx="18" fill="#000000" fill-opacity="0.035" stroke="#000000" stroke-opacity="0.18"/><g transform="translate(13,10.0) scale(0.6666666666666666)"><path d="M23.5594 14.7228a.5269.5269 0 0 0-.0563-.1191c-.139-.2632-.4768-.3418-1.0074-.2321-1.6533.3411-2.2935.1312-2.5256-.0191 1.342-2.0482 2.445-4.522 3.0411-6.8297.2714-1.0507.7982-3.5237.1222-4.7316a1.5641 1.5641 0 0 0-.1509-.235C21.6931.9086 19.8007.0248 17.5099.0005c-1.4947-.0158-2.7705.3461-3.1161.4794a9.449 9.449 0 0 0-.5159-.0816 8.044 8.044 0 0 0-1.3114-.1278c-1.1822-.0184-2.2038.2642-3.0498.8406-.8573-.3211-4.7888-1.645-7.2219.0788C.9359 2.1526.3086 3.8733.4302 6.3043c.0409.818.5069 3.334 1.2423 5.7436.4598 1.5065.9387 2.7019 1.4334 3.582.553.9942 1.1259 1.5933 1.7143 1.7895.4474.1491 1.1327.1441 1.8581-.7279.8012-.9635 1.5903-1.8258 1.9446-2.2069.4351.2355.9064.3625 1.39.3772a.0569.0569 0 0 0 .0004.0041 11.0312 11.0312 0 0 0-.2472.3054c-.3389.4302-.4094.5197-1.5002.7443-.3102.064-1.1344.2339-1.1464.8115-.0025.1224.0329.2309.0919.3268.2269.4231.9216.6097 1.015.6331 1.3345.3335 2.5044.092 3.3714-.6787-.017 2.231.0775 4.4174.3454 5.0874.2212.5529.7618 1.9045 2.4692 1.9043.2505 0 .5263-.0291.8296-.0941 1.7819-.3821 2.5557-1.1696 2.855-2.9059.1503-.8707.4016-2.8753.5388-4.1012.0169-.0703.0357-.1207.057-.1362.0007-.0005.0697-.0471.4272.0307a.3673.3673 0 0 0 .0443.0068l.2539.0223.0149.001c.8468.0384 1.9114-.1426 2.5312-.4308.6438-.2988 1.8057-1.0323 1.5951-1.6698zM2.371 11.8765c-.7435-2.4358-1.1779-4.8851-1.2123-5.5719-.1086-2.1714.4171-3.6829 1.5623-4.4927 1.8367-1.2986 4.8398-.5408 6.108-.13-.0032.0032-.0066.0061-.0098.0094-2.0238 2.044-1.9758 5.536-1.9708 5.7495-.0002.0823.0066.1989.0162.3593.0348.5873.0996 1.6804-.0735 2.9184-.1609 1.1504.1937 2.2764.9728 3.0892.0806.0841.1648.1631.2518.2374-.3468.3714-1.1004 1.1926-1.9025 2.1576-.5677.6825-.9597.5517-1.0886.5087-.3919-.1307-.813-.5871-1.2381-1.3223-.4796-.839-.9635-2.0317-1.4155-3.5126zm6.0072 5.0871c-.1711-.0428-.3271-.1132-.4322-.1772.0889-.0394.2374-.0902.4833-.1409 1.2833-.2641 1.4815-.4506 1.9143-1.0002.0992-.126.2116-.2687.3673-.4426a.3549.3549 0 0 0 .0737-.1298c.1708-.1513.2724-.1099.4369-.0417.156.0646.3078.26.3695.4752.0291.1016.0619.2945-.0452.4444-.9043 1.2658-2.2216 1.2494-3.1676 1.0128zm2.094-3.988-.0525.141c-.133.3566-.2567.6881-.3334 1.003-.6674-.0021-1.3168-.2872-1.8105-.8024-.6279-.6551-.9131-1.5664-.7825-2.5004.1828-1.3079.1153-2.4468.079-3.0586-.005-.0857-.0095-.1607-.0122-.2199.2957-.2621 1.6659-.9962 2.6429-.7724.4459.1022.7176.4057.8305.928.5846 2.7038.0774 3.8307-.3302 4.7363-.084.1866-.1633.3629-.2311.5454zm7.3637 4.5725c-.0169.1768-.0358.376-.0618.5959l-.146.4383a.3547.3547 0 0 0-.0182.1077c-.0059.4747-.054.6489-.115.8693-.0634.2292-.1353.4891-.1794 1.0575-.11 1.4143-.8782 2.2267-2.4172 2.5565-1.5155.3251-1.7843-.4968-2.0212-1.2217a6.5824 6.5824 0 0 0-.0769-.2266c-.2154-.5858-.1911-1.4119-.1574-2.5551.0165-.5612-.0249-1.9013-.3302-2.6462.0044-.2932.0106-.5909.019-.8918a.3529.3529 0 0 0-.0153-.1126 1.4927 1.4927 0 0 0-.0439-.208c-.1226-.4283-.4213-.7866-.7797-.9351-.1424-.059-.4038-.1672-.7178-.0869.067-.276.1831-.5875.309-.9249l.0529-.142c.0595-.16.134-.3257.213-.5012.4265-.9476 1.0106-2.2453.3766-5.1772-.2374-1.0981-1.0304-1.6343-2.2324-1.5098-.7207.0746-1.3799.3654-1.7088.5321a5.6716 5.6716 0 0 0-.1958.1041c.0918-1.1064.4386-3.1741 1.7357-4.4823a4.0306 4.0306 0 0 1 .3033-.276.3532.3532 0 0 0 .1447-.0644c.7524-.5706 1.6945-.8506 2.802-.8325.4091.0067.8017.0339 1.1742.081 1.939.3544 3.2439 1.4468 4.0359 2.3827.8143.9623 1.2552 1.9315 1.4312 2.4543-1.3232-.1346-2.2234.1268-2.6797.779-.9926 1.4189.543 4.1729 1.2811 5.4964.1353.2426.2522.4522.2889.5413.2403.5825.5515.9713.7787 1.2552.0696.087.1372.1714.1885.245-.4008.1155-1.1208.3825-1.0552 1.717-.0123.1563-.0423.4469-.0834.8148-.0461.2077-.0702.4603-.0994.7662zm.8905-1.6211c-.0405-.8316.2691-.9185.5967-1.0105a2.8566 2.8566 0 0 0 .135-.0406 1.202 1.202 0 0 0 .1342.103c.5703.3765 1.5823.4213 3.0068.1344-.2016.1769-.5189.3994-.9533.6011-.4098.1903-1.0957.333-1.7473.3636-.7197.0336-1.0859-.0807-1.1721-.151zm.5695-9.2712c-.0059.3508-.0542.6692-.1054 1.0017-.055.3576-.112.7274-.1264 1.1762-.0142.4368.0404.8909.0932 1.3301.1066.887.216 1.8003-.2075 2.7014a3.5272 3.5272 0 0 1-.1876-.3856c-.0527-.1276-.1669-.3326-.3251-.6162-.6156-1.1041-2.0574-3.6896-1.3193-4.7446.3795-.5427 1.3408-.5661 2.1781-.463zm.2284 7.0137a12.3762 12.3762 0 0 0-.0853-.1074l-.0355-.0444c.7262-1.1995.5842-2.3862.4578-3.4385-.0519-.4318-.1009-.8396-.0885-1.2226.0129-.4061.0666-.7543.1185-1.0911.0639-.415.1288-.8443.1109-1.3505.0134-.0531.0188-.1158.0118-.1902-.0457-.4855-.5999-1.938-1.7294-3.253-.6076-.7073-1.4896-1.4972-2.6889-2.0395.5251-.1066 1.2328-.2035 2.0244-.1859 2.0515.0456 3.6746.8135 4.8242 2.2824a.908.908 0 0 1 .0667.1002c.7231 1.3556-.2762 6.2751-2.9867 10.5405zm-8.8166-6.1162c-.025.1794-.3089.4225-.6211.4225a.5821.5821 0 0 1-.0809-.0056c-.1873-.026-.3765-.144-.5059-.3156-.0458-.0605-.1203-.178-.1055-.2844.0055-.0401.0261-.0985.0925-.1488.1182-.0894.3518-.1226.6096-.0867.3163.0441.6426.1938.6113.4186zm7.9305-.4114c.0111.0792-.049.201-.1531.3102-.0683.0717-.212.1961-.4079.2232a.5456.5456 0 0 1-.075.0052c-.2935 0-.5414-.2344-.5607-.3717-.024-.1765.2641-.3106.5611-.352.297-.0414.6111.0088.6356.1851z" fill="#000000" fill-opacity="0.9"/></g><text x="37" y="22.5" font-size="13" fill="#1c1c1c">PostgreSQL · pgvector</text></g><g transform="translate(346,350)" opacity="0"><animate attributeName="opacity" from="0" to="1" begin="1.48s" dur="0.45s" fill="freeze"/><animateTransform attributeName="transform" type="translate" additive="sum" from="0 10" to="0 0" begin="1.48s" dur="0.45s" fill="freeze"/><rect width="89" height="36" rx="18" fill="#000000" fill-opacity="0.035" stroke="#000000" stroke-opacity="0.18"/><g transform="translate(13,10.0) scale(0.6666666666666666)"><path d="M16.405 5.501c-.115 0-.193.014-.274.033v.013h.014c.054.104.146.18.214.273.054.107.1.214.154.32l.014-.015c.094-.066.14-.172.14-.333-.04-.047-.046-.094-.08-.14-.04-.067-.126-.1-.18-.153zM5.77 18.695h-.927a50.854 50.854 0 00-.27-4.41h-.008l-1.41 4.41H2.45l-1.4-4.41h-.01a72.892 72.892 0 00-.195 4.41H0c.055-1.966.192-3.81.41-5.53h1.15l1.335 4.064h.008l1.347-4.064h1.095c.242 2.015.384 3.86.428 5.53zm4.017-4.08c-.378 2.045-.876 3.533-1.492 4.46-.482.716-1.01 1.073-1.583 1.073-.153 0-.34-.046-.566-.138v-.494c.11.017.24.026.386.026.268 0 .483-.075.647-.222.197-.18.295-.382.295-.605 0-.155-.077-.47-.23-.944L6.23 14.615h.91l.727 2.36c.164.536.233.91.205 1.123.4-1.064.678-2.227.835-3.483zm12.325 4.08h-2.63v-5.53h.885v4.85h1.745zm-3.32.135l-1.016-.5c.09-.076.177-.158.255-.25.433-.506.648-1.258.648-2.253 0-1.83-.718-2.746-2.155-2.746-.704 0-1.254.232-1.65.697-.43.508-.646 1.256-.646 2.245 0 .972.19 1.686.574 2.14.35.41.877.615 1.583.615.264 0 .506-.033.725-.098l1.325.772.36-.622zM15.5 17.588c-.225-.36-.337-.94-.337-1.736 0-1.393.424-2.09 1.27-2.09.443 0 .77.167.977.5.224.362.336.936.336 1.723 0 1.404-.424 2.108-1.27 2.108-.445 0-.77-.167-.978-.5zm-1.658-.425c0 .47-.172.856-.516 1.156-.344.3-.803.45-1.384.45-.543 0-1.064-.172-1.573-.515l.237-.476c.438.22.833.328 1.19.328.332 0 .593-.073.783-.22a.754.754 0 00.3-.615c0-.33-.23-.61-.648-.845-.388-.213-1.163-.657-1.163-.657-.422-.307-.632-.636-.632-1.177 0-.45.157-.81.47-1.085.315-.278.72-.415 1.22-.415.512 0 .98.136 1.4.41l-.213.476a2.726 2.726 0 00-1.064-.23c-.283 0-.502.068-.654.206a.685.685 0 00-.248.524c0 .328.234.61.666.85.393.215 1.187.67 1.187.67.433.305.648.63.648 1.168zm9.382-5.852c-.535-.014-.95.04-1.297.188-.1.04-.26.04-.274.167.055.053.063.14.11.214.08.134.218.313.346.407.14.11.28.216.427.31.26.16.555.255.81.416.145.094.293.213.44.313.073.05.12.14.214.172v-.02c-.046-.06-.06-.147-.105-.214-.067-.067-.134-.127-.2-.193a3.223 3.223 0 00-.695-.675c-.214-.146-.682-.35-.77-.595l-.013-.014c.146-.013.32-.066.46-.106.227-.06.435-.047.67-.106.106-.027.213-.06.32-.094v-.06c-.12-.12-.21-.283-.334-.395a8.867 8.867 0 00-1.104-.823c-.21-.134-.476-.22-.697-.334-.08-.04-.214-.06-.26-.127-.12-.146-.19-.34-.275-.514a17.69 17.69 0 01-.547-1.163c-.12-.262-.193-.523-.34-.763-.69-1.137-1.437-1.826-2.586-2.5-.247-.14-.543-.2-.856-.274-.167-.008-.334-.02-.5-.027-.11-.047-.216-.174-.31-.235-.38-.24-1.364-.76-1.644-.072-.18.434.267.862.422 1.082.115.153.26.328.34.5.047.116.06.235.107.356.106.294.207.622.347.897.073.14.153.287.247.413.054.073.146.107.167.227-.094.136-.1.334-.154.5-.24.757-.146 1.693.194 2.25.107.166.362.534.703.393.3-.12.234-.5.32-.835.02-.08.007-.133.048-.187v.015c.094.188.188.367.274.555.206.328.566.668.867.895.16.12.287.328.487.402v-.02h-.015c-.043-.058-.1-.086-.154-.133a3.445 3.445 0 01-.35-.4 8.76 8.76 0 01-.747-1.218c-.11-.21-.202-.436-.29-.643-.04-.08-.04-.2-.107-.24-.1.146-.247.273-.32.453-.127.288-.14.642-.188 1.01-.027.007-.014 0-.027.014-.214-.052-.287-.274-.367-.46-.2-.475-.233-1.238-.06-1.785.047-.14.247-.582.167-.716-.042-.127-.174-.2-.247-.303a2.478 2.478 0 01-.24-.427c-.16-.374-.24-.788-.414-1.162-.08-.173-.22-.354-.334-.513-.127-.18-.267-.307-.368-.52-.033-.073-.08-.194-.027-.274.014-.054.042-.075.094-.09.088-.072.335.022.422.062.247.1.455.194.662.334.094.066.195.193.315.226h.14c.214.047.455.014.655.073.355.114.675.28.962.46a5.953 5.953 0 012.085 2.286c.08.154.115.295.188.455.14.33.313.663.455.982.14.315.275.636.476.897.1.14.502.213.682.286.133.06.34.115.46.188.23.14.454.3.67.454.11.076.443.243.463.378z" fill="#000000" fill-opacity="0.9"/></g><text x="37" y="22.5" font-size="13" fill="#1c1c1c">MySQL</text></g><g transform="translate(445,350)" opacity="0"><animate attributeName="opacity" from="0" to="1" begin="1.55s" dur="0.45s" fill="freeze"/><animateTransform attributeName="transform" type="translate" additive="sum" from="0 10" to="0 0" begin="1.55s" dur="0.45s" fill="freeze"/><rect width="138" height="36" rx="18" fill="#000000" fill-opacity="0.035" stroke="#000000" stroke-opacity="0.18"/><text x="13" y="22.5" font-size="13" fill="#1c1c1c">AWS Serverless</text></g><g transform="translate(593,350)" opacity="0"><animate attributeName="opacity" from="0" to="1" begin="1.62s" dur="0.45s" fill="freeze"/><animateTransform attributeName="transform" type="translate" additive="sum" from="0 10" to="0 0" begin="1.62s" dur="0.45s" fill="freeze"/><rect width="97" height="36" rx="18" fill="#000000" fill-opacity="0.035" stroke="#000000" stroke-opacity="0.18"/><g transform="translate(13,10.0) scale(0.6666666666666666)"><path d="M13.983 11.078h2.119a.186.186 0 00.186-.185V9.006a.186.186 0 00-.186-.186h-2.119a.185.185 0 00-.185.185v1.888c0 .102.083.185.185.185m-2.954-5.43h2.118a.186.186 0 00.186-.186V3.574a.186.186 0 00-.186-.185h-2.118a.185.185 0 00-.185.185v1.888c0 .102.082.185.185.185m0 2.716h2.118a.187.187 0 00.186-.186V6.29a.186.186 0 00-.186-.185h-2.118a.185.185 0 00-.185.185v1.887c0 .102.082.185.185.186m-2.93 0h2.12a.186.186 0 00.184-.186V6.29a.185.185 0 00-.185-.185H8.1a.185.185 0 00-.185.185v1.887c0 .102.083.185.185.186m-2.964 0h2.119a.186.186 0 00.185-.186V6.29a.185.185 0 00-.185-.185H5.136a.186.186 0 00-.186.185v1.887c0 .102.084.185.186.186m5.893 2.715h2.118a.186.186 0 00.186-.185V9.006a.186.186 0 00-.186-.186h-2.118a.185.185 0 00-.185.185v1.888c0 .102.082.185.185.185m-2.93 0h2.12a.185.185 0 00.184-.185V9.006a.185.185 0 00-.184-.186h-2.12a.185.185 0 00-.184.185v1.888c0 .102.083.185.185.185m-2.964 0h2.119a.185.185 0 00.185-.185V9.006a.185.185 0 00-.184-.186h-2.12a.186.186 0 00-.186.186v1.887c0 .102.084.185.186.185m-2.92 0h2.12a.185.185 0 00.184-.185V9.006a.185.185 0 00-.184-.186h-2.12a.185.185 0 00-.184.185v1.888c0 .102.082.185.185.185M23.763 9.89c-.065-.051-.672-.51-1.954-.51-.338.001-.676.03-1.01.087-.248-1.7-1.653-2.53-1.716-2.566l-.344-.199-.226.327c-.284.438-.49.922-.612 1.43-.23.97-.09 1.882.403 2.661-.595.332-1.55.413-1.744.42H.751a.751.751 0 00-.75.748 11.376 11.376 0 00.692 4.062c.545 1.428 1.355 2.48 2.41 3.124 1.18.723 3.1 1.137 5.275 1.137.983.003 1.963-.086 2.93-.266a12.248 12.248 0 003.823-1.389c.98-.567 1.86-1.288 2.61-2.136 1.252-1.418 1.998-2.997 2.553-4.4h.221c1.372 0 2.215-.549 2.68-1.009.309-.293.55-.65.707-1.046l.098-.288Z" fill="#000000" fill-opacity="0.9"/></g><text x="37" y="22.5" font-size="13" fill="#1c1c1c">Docker</text></g><g transform="translate(700,350)" opacity="0"><animate attributeName="opacity" from="0" to="1" begin="1.69s" dur="0.45s" fill="freeze"/><animateTransform attributeName="transform" type="translate" additive="sum" from="0 10" to="0 0" begin="1.69s" dur="0.45s" fill="freeze"/><rect width="73" height="36" rx="18" fill="#000000" fill-opacity="0.035" stroke="#000000" stroke-opacity="0.18"/><g transform="translate(13,10.0) scale(0.6666666666666666)"><path d="M23.546 10.93L13.067.452c-.604-.603-1.582-.603-2.188 0L8.708 2.627l2.76 2.76c.645-.215 1.379-.07 1.889.441.516.515.658 1.258.438 1.9l2.658 2.66c.645-.223 1.387-.078 1.9.435.721.72.721 1.884 0 2.604-.719.719-1.881.719-2.6 0-.539-.541-.674-1.337-.404-1.996L12.86 8.955v6.525c.176.086.342.203.488.348.713.721.713 1.883 0 2.6-.719.721-1.889.721-2.609 0-.719-.719-.719-1.879 0-2.598.182-.18.387-.316.605-.406V8.835c-.217-.091-.424-.222-.6-.401-.545-.545-.676-1.342-.396-2.009L7.636 3.7.45 10.881c-.6.605-.6 1.584 0 2.189l10.48 10.477c.604.604 1.582.604 2.186 0l10.43-10.43c.605-.603.605-1.582 0-2.187" fill="#000000" fill-opacity="0.9"/></g><text x="37" y="22.5" font-size="13" fill="#1c1c1c">Git</text></g><g transform="translate(4,398)" opacity="0"><animate attributeName="opacity" from="0" to="1" begin="1.76s" dur="0.45s" fill="freeze"/><animateTransform attributeName="transform" type="translate" additive="sum" from="0 10" to="0 0" begin="1.76s" dur="0.45s" fill="freeze"/><rect width="122" height="36" rx="18" fill="#000000" fill-opacity="0.035" stroke="#000000" stroke-opacity="0.18"/><text x="13" y="22.5" font-size="13" fill="#1c1c1c">Azure DevOps</text></g></svg>